<?xml version="1.0" encoding="UTF-8"?>
<svg width="26px" height="26px" viewBox="0 0 26 26" version="1.1" xmlns="http://www.w3.org/2000/svg" xmlns:xlink="http://www.w3.org/1999/xlink">
    <!-- Generator: Sketch 54.1 (76490) - https://sketchapp.com -->
    <title>login_icn</title>
    <desc>Created with Sketch.</desc>
    <g id="UI" stroke="none" stroke-width="1" fill="none" fill-rule="evenodd">
        <path d="M13.1403373,4.4256405 C15.6747107,4.4256405 17.7292262,6.48015603 17.7292262,9.01452939 C17.7292262,11.5489027 15.6747107,13.6034183 13.1403373,13.6034183 C10.605964,13.6034183 8.55144843,11.5489027 8.55144843,9.01452939 C8.55144843,6.48015603 10.605964,4.4256405 13.1403373,4.4256405 Z M13.1403373,12.1589738 C14.876966,12.1589738 16.2847818,10.7511581 16.2847818,9.01452939 C16.2847818,7.27790067 14.876966,5.87008494 13.1403373,5.87008494 C11.4037086,5.87008494 9.99589287,7.27790067 9.99589287,9.01452939 C9.99589287,10.7511581 11.4037086,12.1589738 13.1403373,12.1589738 Z M24.6194214,8.39476167 C26.464252,13.1236259 25.2172453,18.5000711 21.4794677,21.9335738 C21.1777923,22.2122457 20.8626031,22.4751836 20.5344431,22.7219587 C16.1602422,26.0303593 10.1205752,26.0304673 5.74707553,22.7225941 C1.50427982,19.5429782 -0.226356395,14.0041878 1.45142612,8.97464321 C3.1291947,3.94514041 7.83845456,0.554636444 13.1402385,0.55897382 C18.2162235,0.554310824 22.7745866,3.66588665 24.6194214,8.39476167 Z M13.1401195,23.7589739 C15.6538894,23.7612656 18.0888814,22.8887582 20.0281923,21.2925357 C19.4252697,17.9675245 16.5277016,15.5428133 13.1403373,15.5428133 C9.752973,15.5428133 6.85540495,17.9675245 6.25248233,21.2925357 C8.19176849,22.8887378 10.626751,23.7612656 13.1401195,23.7589739 Z M20.7944287,5.13485019 C16.5551503,0.936781184 9.72552437,0.936781184 5.48624596,5.13485019 C1.35467644,9.22625733 1.17970031,15.8310602 5.04627241,20.1315054 C6.10492022,16.559164 9.3933865,14.091002 13.1403373,14.091002 C16.8872881,14.091002 20.1757544,16.559164 21.2344022,20.1315054 C25.1009743,15.8310602 24.9259982,9.22625733 20.7944287,5.13485019 Z" id="login_icn" fill="#b3b8be" fill-rule="nonzero"></path>
    </g>
</svg>