<?xml version="1.0" encoding="UTF-8"?>
<svg width="22px" height="23px" viewBox="0 0 22 23" version="1.1" xmlns="http://www.w3.org/2000/svg" xmlns:xlink="http://www.w3.org/1999/xlink">
    <!-- Generator: Sketch 54.1 (76490) - https://sketchapp.com -->
    <title>search_icn</title>
    <desc>Created with Sketch.</desc>
    <g id="UI" stroke="none" stroke-width="1" fill="none" fill-rule="evenodd">
        <g id="DỊch-vụ-Cloud" transform="translate(-1288.000000, -26.000000)" fill="#ffffff" fill-rule="nonzero">
            <path style="fill: #252525" d="M1303.46075,40.6768172 L1303.28895,40.8792507 L1303.51291,41.0218564 C1303.56406,41.0544235 1303.61256,41.0934262 1303.65777,41.1386307 L1308.8894,46.7355614 C1309.20868,47.05503 1309.20868,47.5148524 1308.89482,47.8287122 C1308.72459,47.9989409 1308.57797,48.0641071 1308.35105,48.0641071 C1308.12413,48.0641071 1307.97751,47.9989409 1307.80728,47.8287122 L1302.57565,42.2317815 C1302.51403,42.1699813 1302.46744,42.1087038 1302.4309,42.0436493 L1302.30107,41.812542 L1302.08956,41.9723156 C1300.60583,43.0930952 1298.79319,43.7079979 1296.87552,43.7079979 C1292.08281,43.7079979 1288.25,39.87519 1288.25,35.0824766 C1288.25,30.2897631 1292.08281,26.4569553 1296.87552,26.4569553 C1301.66823,26.4569553 1305.50104,30.2897631 1305.50104,35.0824766 C1305.50104,37.1707645 1304.77131,39.1325504 1303.46075,40.6768172 Z M1296.87552,27.9622151 C1292.90964,27.9622151 1289.75526,31.1165983 1289.75526,35.0824766 C1289.75526,39.0483548 1292.90964,42.202738 1296.87552,42.202738 C1300.8414,42.202738 1303.99578,39.0483548 1303.99578,35.0824766 C1303.99578,31.1165983 1300.8414,27.9622151 1296.87552,27.9622151 Z" id="search_icn"></path>
        </g>
    </g>
</svg>
